<?xml version="1.0" encoding="utf-8"?>
<!-- Generator: Adobe Illustrator 15.0.2, SVG Export Plug-In  -->
<!DOCTYPE svg PUBLIC "-//W3C//DTD SVG 1.1//EN" "http://www.w3.org/Graphics/SVG/1.1/DTD/svg11.dtd" [
	<!ENTITY ns_flows "http://ns.adobe.com/Flows/1.0/">
]>
<svg version="1.1"
	 xmlns="http://www.w3.org/2000/svg" xmlns:xlink="http://www.w3.org/1999/xlink" xmlns:a="http://ns.adobe.com/AdobeSVGViewerExtensions/3.0/"
	 x="0px" y="0px" width="44px" height="44px" viewBox="-1.292 -1.249 44 44"
	 overflow="visible" enable-background="new -1.292 -1.249 44 44" xml:space="preserve">
<defs>
</defs>
<path fill="#FFFFFF" d="M20.708,27.069L0.132,0.737C-0.189,0.33,0.094,0,0.766,0h6.768C8.205,0,9.015,0.329,9.34,0.735
	l11.368,14.433"/>
<path fill="#FFFFFF" d="M20.708,15.168L32.076,0.735C32.403,0.329,33.212,0,33.885,0h6.767c0.672,0,0.955,0.33,0.633,0.737
	L20.708,27.069"/>
<path fill="#FFFFFF" d="M20.708,26.798L9.34,41.231c-0.326,0.407-1.135,0.735-1.807,0.735H0.766c-0.671,0-0.955-0.329-0.633-0.737
	l20.576-26.331"/>
<path fill="#FFFFFF" d="M20.708,14.898l20.576,26.331c0.322,0.408,0.039,0.737-0.633,0.737h-6.767c-0.673,0-1.481-0.328-1.809-0.735
	L20.708,26.798"/>
</svg>
