<?xml version="1.0" encoding="utf-8"?>
<!-- Generator: Adobe Illustrator 15.0.2, SVG Export Plug-In  -->
<!DOCTYPE svg PUBLIC "-//W3C//DTD SVG 1.1//EN" "http://www.w3.org/Graphics/SVG/1.1/DTD/svg11.dtd" [
	<!ENTITY ns_flows "http://ns.adobe.com/Flows/1.0/">
]>
<svg version="1.1"
	 xmlns="http://www.w3.org/2000/svg" xmlns:xlink="http://www.w3.org/1999/xlink" xmlns:a="http://ns.adobe.com/AdobeSVGViewerExtensions/3.0/"
	 x="0px" y="0px" width="300px" height="60px" viewBox="-0.313 -0.04 300 60"
	 overflow="visible" enable-background="new -0.313 -0.04 300 60" xml:space="preserve">
<defs>
</defs>
<path fill="#3B3315" d="M76.74,14.684c6.291,0,10.862,5.785,10.862,10.707c0,5.274-4.571,10.823-10.862,10.823h-5.627v8.908
	c0,0.47-0.313,0.822-0.743,0.822h-5.119c-0.469,0-0.781-0.313-0.781-0.822V15.465c0-0.429,0.312-0.781,0.781-0.781H76.74z
	 M76.349,29.768c2.892,0,4.611-2.149,4.611-4.376c0-2.149-1.72-4.258-4.611-4.258h-5.236v8.635H76.349z"/>
<path fill="#3B3315" d="M111.956,45.045c0.273,0.509,0.039,0.899-0.508,0.899h-5.548c-0.43,0-0.664-0.195-0.82-0.509l-1.836-3.908
	H89.801l-1.837,3.908c-0.156,0.313-0.43,0.509-0.82,0.509h-5.549c-0.508,0-0.781-0.391-0.547-0.899L95.74,14.879
	c0.156-0.273,0.352-0.391,0.585-0.391h0.391c0.235,0,0.43,0.118,0.586,0.391L111.956,45.045z M100.429,35.551l-3.907-8.403
	l-3.947,8.403H100.429z"/>
<path fill="#3B3315" d="M128.699,14.684c0.43,0,0.782,0.313,0.782,0.781v4.649c0,0.432-0.352,0.784-0.782,0.784h-8.323v24.224
	c0,0.509-0.313,0.822-0.743,0.822h-3.868c-1.29,0-2.032-0.899-2.032-2.111V20.898h-8.323c-0.43,0-0.82-0.313-0.82-0.784v-4.608
	c0-0.47,0.352-0.822,0.82-0.822H128.699z"/>
<path fill="#3B3315" d="M157.237,14.684c0.43,0,0.781,0.352,0.781,0.781v29.657c0,0.509-0.312,0.822-0.742,0.822h-3.907
	c-1.29,0-2.032-0.899-2.032-2.111v-9.808h-13.128v11.097c0,0.432-0.353,0.822-0.783,0.822h-5.079c-0.469,0-0.82-0.353-0.82-0.822
	V15.465c0-0.429,0.312-0.781,0.782-0.781h5.079c0.431,0,0.822,0.352,0.822,0.781v11.878h13.128V15.465
	c0-0.429,0.313-0.781,0.781-0.781H157.237z"/>
<path fill="#3B3315" d="M180.581,14.684c0.431,0,0.82,0.352,0.82,0.781v4.649c0,0.47-0.351,0.784-0.82,0.784h-12.934v6.681h6.683
	c0.43,0,0.82,0.352,0.82,0.782v4.611c0,0.468-0.353,0.82-0.82,0.82h-6.683v11.33c0,0.47-0.351,0.822-0.781,0.822h-3.868
	c-1.289,0-2.032-0.822-2.032-2.072V15.465c0-0.429,0.312-0.781,0.782-0.781H180.581z"/>
<path fill="#3B3315" d="M189.008,14.684c0.429,0,0.82,0.352,0.82,0.781v29.657c0,0.432-0.353,0.822-0.782,0.822h-4.923
	c-0.469,0-0.819-0.353-0.819-0.822V15.465c0-0.429,0.312-0.781,0.78-0.781H189.008z"/>
<path fill="#3B3315" d="M219.019,14.684c0.43,0,0.819,0.352,0.819,0.781v29.697c0,0.43-0.352,0.782-0.781,0.782h-1.68
	c-1.368,0-2.579-0.859-3.947-2.425l-14.223-15.863v17.466c0,0.432-0.392,0.781-0.82,0.781l-5.002,0.041
	c-0.469,0-0.82-0.353-0.82-0.822V15.465c0-0.429,0.352-0.781,0.781-0.781h2.97c0.431,0,0.703,0.157,1.134,0.586l15.746,17.975
	V15.465c0-0.429,0.313-0.781,0.782-0.781H219.019z"/>
<path fill="#3B3315" d="M233.892,14.684c10.158,0,16.059,8.206,16.059,15.513c0,8.36-5.938,15.748-16.059,15.748h-10.355
	c-0.469,0-0.82-0.353-0.82-0.822V15.465c0-0.429,0.312-0.781,0.781-0.781H233.892z M233.852,39.418c5.86,0,9.261-4.572,9.261-9.26
	c0-4.688-3.322-8.949-9.261-8.949h-4.414v18.208H233.852z"/>
<path fill="#3B3315" d="M257.982,20.898v6.681h7.034c0.431,0,0.82,0.352,0.82,0.782v4.611c0,0.468-0.352,0.82-0.82,0.82h-6.994
	v5.939h13.208c0.431,0,0.819,0.351,0.819,0.781v4.609c0,0.47-0.352,0.822-0.819,0.822h-19.069c-0.469,0-0.82-0.353-0.82-0.822
	V15.465c0-0.429,0.312-0.781,0.781-0.781h19.108c0.431,0,0.819,0.352,0.819,0.781v4.649c0,0.47-0.352,0.784-0.819,0.784H257.982z"/>
<path fill="#3B3315" d="M299.694,40.51v4.767c-0.005,0.404-0.319,0.662-0.826,0.662c-8.278,0-12.236-6.134-12.81-9.03
	c-0.074-0.363-0.376-0.667-0.748-0.667c-2.346,0-4.617,0-4.617,0v8.871c0,0.464-0.312,0.816-0.737,0.816h-5.097
	c-0.468,0-0.778-0.312-0.778-0.816V15.583c0-0.426,0.311-0.778,0.778-0.778h12.563c6.42,0,10.467,5.954,10.467,10.661
	c0,3.618-2.062,7.586-5.604,9.531c0,0,0.76,4.862,6.655,4.862C299.409,39.866,299.699,40.14,299.694,40.51z M280.733,30.058h5.718
	c3.347,0,4.707-2.452,4.707-4.63c0-2.101-1.399-4.437-4.707-4.437h-5.718V30.058z"/>
<path fill="#3B3315" d="M29.827,52.355c0.053-0.083,0.144-0.175,0.206-0.266c0.052-0.085,0.099-0.16,0.159-0.243
	c0.517-0.814,1.042-1.643,1.558-2.486c0.798-1.309,1.59-2.632,2.357-3.955c0.007-0.008,0.016-0.021,0.023-0.029
	c0.365-0.638,0.729-1.269,1.08-1.899c0.083-0.153,0.167-0.306,0.251-0.449c0.267-0.487,0.532-0.982,0.798-1.453
	c2.699-5.032,4.676-9.597,4.676-11.959c0-6.129-4.98-11.119-11.108-11.119c-6.127,0-11.108,4.99-11.108,11.119
	c0,2.362,1.976,6.927,4.676,11.959c0.266,0.471,0.532,0.966,0.798,1.453c0.083,0.144,0.168,0.296,0.251,0.449
	c0.35,0.631,0.714,1.262,1.079,1.899c0.008,0.008,0.015,0.021,0.023,0.029c0.768,1.323,1.559,2.646,2.357,3.955
	c0.517,0.844,1.042,1.672,1.558,2.486c0.061,0.083,0.106,0.158,0.161,0.243C29.683,52.18,29.773,52.272,29.827,52.355z
	 M59.381,29.454c0.365,0.213,0.365,0.546,0,0.761l-3.209,1.861c-0.365,0.213-0.692,0.724-0.753,1.136
	c-0.334,2.554-1.048,4.986-2.074,7.252c-0.32,0.692-0.662,1.36-1.027,2.021c-0.19,0.335-0.388,0.664-0.586,0.991
	c-0.41,0.645-0.844,1.284-1.307,1.899c-4.075,5.389-10.211,9.139-17.229,10.06c-0.41,0.06-0.92,0.387-1.133,0.753l-1.854,3.208
	c-0.214,0.365-0.548,0.365-0.761,0l-1.855-3.208c-0.213-0.366-0.723-0.693-1.133-0.753c-7.018-0.921-13.154-4.671-17.229-10.06
	c-0.464-0.615-0.897-1.255-1.308-1.899c-0.197-0.327-0.395-0.656-0.584-0.991c-0.366-0.661-0.708-1.329-1.027-2.021
	c-1.026-2.266-1.742-4.698-2.075-7.252c-0.062-0.412-0.388-0.923-0.753-1.136l-3.208-1.861c-0.365-0.215-0.365-0.548,0-0.761
	l3.208-1.863c0.365-0.212,0.691-0.714,0.753-1.132C5.748,14.908,14.917,5.749,26.466,4.234c0.411-0.06,0.92-0.387,1.133-0.752
	l1.848-3.21c0.213-0.362,0.547-0.362,0.761,0l1.847,3.21c0.213,0.366,0.723,0.692,1.134,0.752
	c11.548,1.515,20.718,10.674,22.23,22.225c0.062,0.412,0.388,0.919,0.753,1.132L59.381,29.454z M51.838,29.833
	c0-0.333-0.015-0.662-0.03-0.995c-0.068-1.399-0.258-2.769-0.57-4.09c-1.247-5.286-4.41-9.823-8.706-12.875
	c-2.266-1.604-4.843-2.806-7.633-3.465c-0.023-0.008-0.046-0.008-0.069-0.015h-0.008l0.966,1.671l0.145,0.244l13.413,23.235
	l0.691,1.191l0.38,0.656l0.471,0.83c0,0,0,0,0.008,0c0.129-0.428,0.244-0.869,0.35-1.31c0.137-0.585,0.243-1.179,0.334-1.778
	c0.092-0.631,0.167-1.277,0.213-1.923C51.823,30.756,51.838,30.298,51.838,29.833z M49.025,40.593l-4.707-8.159
	c-0.669,2.625-2.076,5.841-3.764,9.14c-0.319,0.631-0.653,1.264-0.996,1.902c-0.342,0.631-0.691,1.268-1.049,1.899
	c-1.148,2.046-2.342,4.038-3.452,5.848c3.991-0.974,7.557-3.034,10.363-5.848c0.593-0.602,1.155-1.238,1.68-1.899
	c0.48-0.617,0.928-1.248,1.346-1.902C48.653,41.247,48.842,40.927,49.025,40.593z M34.519,15.465l-0.837-1.451l-2.136-3.706
	l-1.437-2.486l-0.282-0.501l-0.281,0.501l-1.438,2.486l-2.136,3.706l-0.837,1.451c1.476-0.489,3.049-0.768,4.691-0.768
	S33.043,14.976,34.519,15.465z M23.866,10.065l0.966-1.671h-0.007c-0.023,0.007-0.045,0.007-0.068,0.015
	c-2.792,0.66-5.369,1.861-7.634,3.465c-4.296,3.051-7.459,7.588-8.706,12.875c-0.312,1.321-0.501,2.691-0.57,4.09
	c-0.016,0.333-0.03,0.662-0.03,0.995c0,0.464,0.015,0.923,0.046,1.378c0.045,0.646,0.122,1.292,0.22,1.923
	c0.084,0.6,0.191,1.193,0.327,1.778c0.106,0.44,0.221,0.882,0.35,1.31c0.007,0,0.007,0,0.007,0l0.472-0.83l0.38-0.656l0.692-1.191
	l13.412-23.235L23.866,10.065z M24.596,51.223c-1.11-1.81-2.304-3.802-3.452-5.848c-0.357-0.632-0.707-1.269-1.049-1.899
	c-0.342-0.639-0.676-1.271-0.995-1.902c-1.688-3.299-3.096-6.515-3.764-9.14l-4.707,8.159c0.182,0.334,0.373,0.653,0.578,0.98
	c0.418,0.654,0.867,1.285,1.346,1.902c0.524,0.661,1.088,1.298,1.681,1.899C17.039,48.189,20.605,50.25,24.596,51.223z"/>
<path fill="#58AADE" d="M51.808,28.839c0.015,0.333,0.03,0.662,0.03,0.995c0,0.464-0.015,0.923-0.046,1.378
	c-0.045,0.646-0.121,1.292-0.213,1.923c-0.091,0.6-0.197,1.193-0.334,1.778c-0.106,0.44-0.221,0.882-0.35,1.31
	c-0.008,0-0.008,0-0.008,0l-0.471-0.83l-0.38-0.656l-0.691-1.191L35.933,10.309l-0.145-0.244l-0.966-1.671h0.008
	c0.022,0.007,0.046,0.007,0.069,0.015c2.79,0.66,5.368,1.861,7.633,3.465c4.295,3.051,7.458,7.588,8.706,12.875
	C51.55,26.07,51.74,27.44,51.808,28.839z"/>
<path fill="#6E6E2E" d="M44.319,32.434l4.707,8.159c-0.183,0.334-0.373,0.653-0.579,0.98c-0.418,0.654-0.866,1.285-1.346,1.902
	c-0.525,0.661-1.086,1.298-1.68,1.899c-2.806,2.813-6.372,4.874-10.363,5.848c1.109-1.81,2.303-3.802,3.452-5.848
	c0.357-0.632,0.707-1.269,1.049-1.899c0.343-0.639,0.677-1.271,0.996-1.902C42.243,38.275,43.65,35.059,44.319,32.434z"/>
<path fill="#FBB944" d="M40.936,29.615c0,2.362-1.977,6.927-4.676,11.959c-0.267,0.471-0.532,0.966-0.798,1.453
	c-0.084,0.144-0.168,0.296-0.251,0.449c-0.351,0.631-0.715,1.262-1.08,1.899c-0.007,0.008-0.016,0.021-0.023,0.029
	c-0.768,1.323-1.559,2.646-2.357,3.955c-0.517,0.844-1.042,1.672-1.558,2.486c-0.061,0.083-0.107,0.158-0.159,0.243
	c-0.062,0.091-0.153,0.183-0.206,0.266c-0.054-0.083-0.144-0.175-0.205-0.266c-0.054-0.085-0.1-0.16-0.161-0.243
	c-0.517-0.814-1.041-1.643-1.558-2.486c-0.798-1.309-1.589-2.632-2.357-3.955c-0.008-0.008-0.015-0.021-0.023-0.029
	c-0.365-0.638-0.729-1.269-1.079-1.899c-0.083-0.153-0.168-0.306-0.251-0.449c-0.266-0.487-0.532-0.982-0.798-1.453
	c-2.7-5.032-4.676-9.597-4.676-11.959c0-6.129,4.98-11.119,11.108-11.119C35.955,18.496,40.936,23.485,40.936,29.615z
	 M37.385,29.833c0-4.173-3.383-7.573-7.558-7.573c-4.174,0-7.557,3.399-7.557,7.573c0,4.176,3.383,7.567,7.557,7.567
	C34.002,37.401,37.385,34.009,37.385,29.833z"/>
<path fill="#3B3315" d="M29.827,22.261c4.175,0,7.558,3.399,7.558,7.573c0,4.176-3.383,7.567-7.558,7.567
	c-4.174,0-7.557-3.392-7.557-7.567C22.27,25.66,25.653,22.261,29.827,22.261z M33.583,29.833c0-2.076-1.68-3.771-3.756-3.771
	c-2.076,0-3.756,1.695-3.756,3.771s1.681,3.764,3.756,3.764C31.903,33.597,33.583,31.91,33.583,29.833z"/>
<path fill="#FFFFFF" d="M33.682,14.015l0.837,1.451c-1.476-0.489-3.049-0.768-4.691-0.768s-3.216,0.279-4.691,0.768l0.837-1.451
	l2.136-3.706l1.438-2.486l0.281-0.501l0.282,0.501l1.437,2.486L33.682,14.015z"/>
<path fill="#FFFFFF" d="M29.827,26.062c2.076,0,3.756,1.695,3.756,3.771s-1.68,3.764-3.756,3.764c-2.076,0-3.756-1.688-3.756-3.764
	S27.751,26.062,29.827,26.062z"/>
<path fill="#58AADE" d="M24.832,8.394l-0.966,1.671l-0.144,0.244L10.31,33.544l-0.692,1.191l-0.38,0.656l-0.472,0.83
	c0,0,0,0-0.007,0c-0.129-0.428-0.244-0.869-0.35-1.31c-0.136-0.585-0.243-1.179-0.327-1.778c-0.098-0.631-0.174-1.277-0.22-1.923
	c-0.031-0.455-0.046-0.914-0.046-1.378c0-0.333,0.015-0.662,0.03-0.995c0.069-1.399,0.258-2.769,0.57-4.09
	c1.247-5.286,4.41-9.823,8.706-12.875c2.265-1.604,4.842-2.806,7.634-3.465c0.023-0.008,0.045-0.008,0.068-0.015H24.832z"/>
<path fill="#6E6E2E" d="M21.144,45.375c1.148,2.046,2.342,4.038,3.452,5.848c-3.991-0.974-7.558-3.034-10.363-5.848
	c-0.593-0.602-1.156-1.238-1.681-1.899c-0.479-0.617-0.927-1.248-1.346-1.902c-0.205-0.327-0.396-0.646-0.578-0.98l4.707-8.159
	c0.668,2.625,2.076,5.841,3.764,9.14c0.319,0.631,0.653,1.264,0.995,1.902C20.438,44.107,20.787,44.744,21.144,45.375z"/>
</svg>
