<?xml version="1.0" encoding="utf-8"?>
<!-- Generator: Adobe Illustrator 15.0.2, SVG Export Plug-In  -->
<!DOCTYPE svg PUBLIC "-//W3C//DTD SVG 1.1//EN" "http://www.w3.org/Graphics/SVG/1.1/DTD/svg11.dtd" [
	<!ENTITY ns_flows "http://ns.adobe.com/Flows/1.0/">
]>
<svg version="1.1"
	 xmlns="http://www.w3.org/2000/svg" xmlns:xlink="http://www.w3.org/1999/xlink" xmlns:a="http://ns.adobe.com/AdobeSVGViewerExtensions/3.0/"
	 x="0px" y="0px" width="800px" height="500px" viewBox="-19.191 -2.07 800 500"
	 overflow="visible" enable-background="new -19.191 -2.07 800 500" xml:space="preserve">
<defs>
</defs>
<g id="XMLID_1_">
	<g>
		<path fill="#6E6E2E" d="M469.784,209.252l30.327,52.569c-1.177,2.156-2.401,4.214-3.724,6.32
			c-2.695,4.214-5.586,8.28-8.672,12.248c-3.381,4.263-7.006,8.378-10.827,12.248c-18.079,18.128-41.057,31.404-66.777,37.676
			c7.153-11.66,14.845-24.496,22.242-37.676c2.303-4.066,4.557-8.182,6.762-12.248c2.204-4.115,4.36-8.182,6.418-12.248
			C456.409,246.879,465.473,226.155,469.784,209.252z"/>
		<path fill="#3B3315" d="M458.271,76.776c-14.601-10.337-31.209-18.078-49.189-22.341c-0.146-0.049-0.343-0.049-0.44-0.098h-0.049
			l6.222,10.778l0.931,1.568l86.424,149.722l4.458,7.691l2.449,4.213l3.038,5.34c0,0,0,0,0.049,0
			c0.833-2.744,1.567-5.585,2.254-8.427c0.882-3.772,1.567-7.594,2.155-11.464c0.588-4.066,1.029-8.23,1.372-12.395
			c0.196-2.939,0.294-5.879,0.294-8.868c0-2.156-0.098-4.262-0.196-6.418c-0.49-9.015-1.666-17.833-3.674-26.358
			C506.333,125.671,485.952,96.422,458.271,76.776z M304.826,191.076c0,15.237,12.689,44.632,30.082,77.065
			c1.715,3.038,3.429,6.223,5.144,9.357c0.588,0.932,1.127,1.911,1.666,2.891c2.253,4.066,4.605,8.133,6.957,12.248
			c0.049,0.05,0.098,0.147,0.098,0.196c4.997,8.524,10.093,17.05,15.237,25.477c3.332,5.438,6.712,10.778,10.043,16.021
			c0.343,0.539,0.686,1.028,0.98,1.567c0.441,0.588,1.029,1.176,1.323,1.715c0.343-0.539,0.931-1.127,1.372-1.715
			c0.343-0.539,0.637-1.028,1.029-1.567c3.332-5.242,6.663-10.583,10.044-16.021c5.144-8.427,10.239-16.952,15.188-25.477
			c0.049-0.049,0.098-0.146,0.146-0.196c2.353-4.115,4.704-8.182,6.908-12.248c0.588-0.979,1.127-1.959,1.666-2.891
			c1.715-3.135,3.43-6.319,5.145-9.357c17.392-32.433,30.13-61.829,30.13-77.065c0-39.488-32.09-71.627-71.627-71.627
			C336.917,119.449,304.826,151.588,304.826,191.076z M320.455,292.638c-2.352-4.066-4.605-8.182-6.761-12.248
			c-2.205-4.115-4.41-8.182-6.418-12.248c-10.876-21.263-19.94-41.986-24.251-58.889l-30.327,52.569
			c1.176,2.156,2.401,4.214,3.675,6.32c2.743,4.214,5.634,8.28,8.671,12.248c3.43,4.263,7.006,8.378,10.876,12.248
			c18.078,18.128,41.007,31.404,66.777,37.676C335.496,318.653,327.804,305.817,320.455,292.638z M343.726,54.436
			c-17.98,4.263-34.589,12.003-49.188,22.341c-27.73,19.646-48.111,48.895-56.097,82.945c-2.009,8.524-3.233,17.343-3.674,26.358
			c-0.098,2.156-0.196,4.262-0.196,6.418c0,2.989,0.098,5.928,0.245,8.868c0.294,4.165,0.833,8.329,1.47,12.395
			c0.539,3.871,1.225,7.692,2.107,11.464c0.637,2.842,1.421,5.683,2.205,8.427c0.049,0,0.049,0,0.049,0l3.087-5.34l2.449-4.213
			l4.41-7.691l86.472-149.722l0.882-1.568l6.222-10.778h-0.049C344.02,54.387,343.873,54.387,343.726,54.436z M354.652,357.455
			c-45.221-5.928-84.757-30.081-111.018-64.817c-2.989-3.968-5.781-8.083-8.378-12.248c-1.323-2.106-2.597-4.213-3.821-6.369
			c-2.352-4.262-4.507-8.573-6.565-13.031c-6.614-14.6-11.219-30.278-13.375-46.739c-0.441-2.646-2.499-5.928-4.851-7.3
			l-20.724-12.003c-2.303-1.372-2.303-3.527,0-4.899l20.724-12.003c2.352-1.372,4.41-4.605,4.851-7.3
			c9.75-74.419,68.786-133.456,143.206-143.206c2.694-0.392,5.928-2.499,7.349-4.85l11.856-20.675c1.421-2.352,3.527-2.352,4.948,0
			l11.905,20.675c1.372,2.352,4.654,4.458,7.301,4.85c74.419,9.75,133.505,68.786,143.254,143.206
			c0.393,2.646,2.499,5.928,4.851,7.3l20.675,12.003c2.352,1.372,2.352,3.528,0,4.899l-20.675,12.003
			c-2.352,1.372-4.458,4.654-4.851,7.3c-2.155,16.461-6.761,32.139-13.424,46.739c-2.009,4.458-4.213,8.77-6.565,13.031
			c-1.225,2.156-2.498,4.263-3.821,6.369c-2.597,4.165-5.389,8.28-8.377,12.248c-26.261,34.736-65.798,58.89-111.018,64.817
			c-2.646,0.393-5.929,2.499-7.3,4.851l-11.955,20.675c-1.421,2.352-3.527,2.352-4.948,0L362,362.306
			C360.58,359.954,357.346,357.848,354.652,357.455z M500.111,261.821l-30.327-52.569c-4.312,16.903-13.375,37.626-24.251,58.889
			c-2.058,4.066-4.214,8.133-6.418,12.248c-2.205,4.066-4.459,8.182-6.762,12.248c-7.397,13.18-15.089,26.016-22.242,37.676
			c25.721-6.271,48.698-19.548,66.777-37.676c3.821-3.87,7.446-7.985,10.827-12.248c3.086-3.968,5.977-8.034,8.672-12.248
			C497.71,266.035,498.935,263.978,500.111,261.821z M406.633,99.901l-5.39-9.357l-13.767-23.859l-9.259-16.021l-1.862-3.234
			l-1.764,3.234l-9.26,16.021l-13.767,23.859l-5.389,9.357c9.505-3.135,19.597-4.948,30.18-4.948
			C386.986,94.953,397.128,96.766,406.633,99.901z"/>
		<path fill="#58AADE" d="M409.082,54.436c17.98,4.263,34.589,12.003,49.189,22.341c27.681,19.646,48.062,48.895,56.097,82.945
			c2.008,8.524,3.184,17.343,3.674,26.358c0.099,2.156,0.196,4.262,0.196,6.418c0,2.989-0.098,5.928-0.294,8.868
			c-0.343,4.165-0.784,8.329-1.372,12.395c-0.588,3.871-1.273,7.692-2.155,11.464c-0.687,2.842-1.421,5.683-2.254,8.427
			c-0.049,0-0.049,0-0.049,0l-3.038-5.34l-2.449-4.213l-4.458-7.691L415.745,66.684l-0.931-1.568l-6.222-10.778h0.049
			C408.739,54.387,408.936,54.387,409.082,54.436z"/>
		<path fill="#FFFFFF" d="M401.243,90.543l5.39,9.357c-9.505-3.135-19.646-4.948-30.277-4.948c-10.583,0-20.675,1.813-30.18,4.948
			l5.389-9.357l13.767-23.859l9.26-16.021l1.764-3.234l1.862,3.234l9.259,16.021L401.243,90.543z"/>
		<path fill="#FBB944" d="M348.674,292.638c-2.352-4.115-4.703-8.182-6.957-12.248c-0.539-0.979-1.078-1.959-1.666-2.891
			c-1.715-3.135-3.429-6.319-5.144-9.357c-17.393-32.433-30.082-61.829-30.082-77.065c0-39.488,32.09-71.627,71.529-71.627
			c39.537,0,71.627,32.139,71.627,71.627c0,15.237-12.738,44.632-30.13,77.065c-1.715,3.038-3.43,6.223-5.145,9.357
			c-0.539,0.932-1.078,1.911-1.666,2.891c-2.204,4.066-4.556,8.133-6.908,12.248c-0.049,0.05-0.098,0.147-0.146,0.196
			c-4.948,8.524-10.044,17.05-15.188,25.477c-3.381,5.438-6.712,10.778-10.044,16.021c-0.392,0.539-0.686,1.028-1.029,1.567
			c-0.441,0.588-1.029,1.176-1.372,1.715c-0.294-0.539-0.882-1.127-1.323-1.715c-0.294-0.539-0.637-1.028-0.98-1.567
			c-3.332-5.242-6.712-10.583-10.043-16.021c-5.144-8.427-10.24-16.952-15.237-25.477
			C348.772,292.785,348.724,292.688,348.674,292.638z M327.706,192.497c0,26.897,21.753,48.748,48.65,48.748
			c26.946,0,48.748-21.851,48.748-48.748S403.302,143.7,376.355,143.7C349.458,143.7,327.706,165.6,327.706,192.497z"/>
		<path fill="#FFFFFF" d="M376.355,216.749c-13.326,0-24.153-10.876-24.153-24.251s10.827-24.3,24.153-24.3
			c13.424,0,24.202,10.925,24.202,24.3S389.779,216.749,376.355,216.749z"/>
		<path fill="#3B3315" d="M376.355,168.197c-13.326,0-24.153,10.925-24.153,24.3s10.827,24.251,24.153,24.251
			c13.424,0,24.202-10.876,24.202-24.251S389.779,168.197,376.355,168.197z M376.355,241.245c-26.897,0-48.65-21.851-48.65-48.748
			s21.753-48.797,48.65-48.797c26.946,0,48.748,21.9,48.748,48.797S403.302,241.245,376.355,241.245z"/>
		<path fill="#6E6E2E" d="M283.024,209.252c4.312,16.903,13.375,37.626,24.251,58.889c2.008,4.066,4.213,8.133,6.418,12.248
			c2.156,4.066,4.409,8.182,6.761,12.248c7.349,13.18,15.041,26.016,22.243,37.676c-25.77-6.271-48.699-19.548-66.777-37.676
			c-3.871-3.87-7.447-7.985-10.876-12.248c-3.038-3.968-5.928-8.034-8.671-12.248c-1.274-2.106-2.499-4.164-3.675-6.32
			L283.024,209.252z"/>
		<path fill="#58AADE" d="M234.571,192.497c0-2.156,0.098-4.262,0.196-6.418c0.441-9.015,1.666-17.833,3.674-26.358
			c7.986-34.05,28.367-63.299,56.097-82.945c14.6-10.337,31.208-18.078,49.188-22.341c0.147-0.049,0.294-0.049,0.392-0.098h0.049
			l-6.222,10.778l-0.882,1.568l-86.472,149.722l-4.41,7.691l-2.449,4.213l-3.087,5.34c0,0,0,0-0.049,0
			c-0.784-2.744-1.568-5.585-2.205-8.427c-0.882-3.772-1.568-7.594-2.107-11.464c-0.637-4.066-1.176-8.23-1.47-12.395
			C234.668,198.425,234.571,195.486,234.571,192.497z"/>
	</g>
	<g>
	</g>
</g>
<path fill="#3B3315" d="M39.727,394.377c20.369,0,35.172,18.725,35.172,34.668c0,17.08-14.803,35.045-35.172,35.045H21.51v28.842
	c0,1.52-1.014,2.66-2.404,2.66H2.531c-1.518,0-2.531-1.014-2.531-2.66v-96.023c0-1.391,1.014-2.531,2.531-2.531H39.727z
	 M38.463,443.213c9.361,0,14.928-6.957,14.928-14.168c0-6.959-5.566-13.793-14.928-13.793H21.51v27.961H38.463z"/>
<path fill="#3B3315" d="M153.75,492.68c0.885,1.645,0.127,2.912-1.645,2.912h-17.967c-1.391,0-2.15-0.635-2.656-1.646l-5.945-12.65
	H82.016l-5.947,12.65c-0.506,1.012-1.391,1.646-2.656,1.646H55.447c-1.645,0-2.529-1.268-1.771-2.912l47.57-97.67
	c0.506-0.885,1.139-1.264,1.896-1.264h1.266c0.76,0,1.393,0.379,1.898,1.264L153.75,492.68z M116.428,461.936l-12.652-27.199
	l-12.777,27.199H116.428z"/>
<path fill="#3B3315" d="M207.963,394.377c1.391,0,2.529,1.012,2.529,2.531v15.053c0,1.393-1.139,2.533-2.529,2.533h-26.947v78.438
	c0,1.646-1.014,2.66-2.406,2.66h-12.523c-4.176,0-6.578-2.912-6.578-6.83v-74.268h-26.949c-1.391,0-2.656-1.014-2.656-2.533v-14.924
	c0-1.52,1.139-2.66,2.656-2.66H207.963z"/>
<path fill="#3B3315" d="M300.365,394.377c1.393,0,2.531,1.141,2.531,2.531v96.023c0,1.646-1.012,2.66-2.404,2.66h-12.65
	c-4.176,0-6.58-2.912-6.58-6.83v-31.76h-42.508v35.93c0,1.393-1.139,2.66-2.531,2.66h-16.447c-1.518,0-2.656-1.141-2.656-2.66
	v-96.023c0-1.391,1.012-2.531,2.529-2.531h16.447c1.393,0,2.658,1.141,2.658,2.531v38.461h42.508v-38.461
	c0-1.391,1.014-2.531,2.531-2.531H300.365z"/>
<path fill="#3B3315" d="M375.949,394.377c1.393,0,2.658,1.141,2.658,2.531v15.053c0,1.52-1.139,2.533-2.658,2.533h-41.875v21.633
	h21.633c1.393,0,2.658,1.141,2.658,2.533v14.93c0,1.516-1.139,2.656-2.658,2.656h-21.633v36.686c0,1.52-1.139,2.66-2.531,2.66
	h-12.525c-4.174,0-6.578-2.66-6.578-6.707v-91.977c0-1.391,1.012-2.531,2.529-2.531H375.949z"/>
<path fill="#3B3315" d="M403.232,394.377c1.391,0,2.654,1.141,2.654,2.531v96.023c0,1.393-1.137,2.66-2.529,2.66h-15.941
	c-1.518,0-2.654-1.141-2.654-2.66v-96.023c0-1.391,1.01-2.531,2.529-2.531H403.232z"/>
<path fill="#3B3315" d="M500.4,394.377c1.391,0,2.654,1.141,2.654,2.531v96.15c0,1.393-1.137,2.533-2.529,2.533h-5.439
	c-4.428,0-8.35-2.783-12.777-7.844l-46.053-51.365v56.549c0,1.393-1.266,2.533-2.658,2.533l-16.193,0.127
	c-1.518,0-2.656-1.141-2.656-2.66v-96.023c0-1.391,1.139-2.531,2.531-2.531h9.613c1.393,0,2.279,0.506,3.672,1.896l50.984,58.201
	v-57.566c0-1.391,1.012-2.531,2.529-2.531H500.4z"/>
<path fill="#3B3315" d="M548.557,394.377c32.895,0,51.996,26.568,51.996,50.229c0,27.072-19.23,50.986-51.996,50.986h-33.527
	c-1.52,0-2.658-1.141-2.658-2.66v-96.023c0-1.391,1.014-2.531,2.531-2.531H548.557z M548.428,474.461
	c18.979,0,29.986-14.803,29.986-29.984c0-15.18-10.756-28.969-29.986-28.969h-14.295v58.953H548.428z"/>
<path fill="#3B3315" d="M626.562,414.494v21.633h22.773c1.391,0,2.656,1.141,2.656,2.533v14.93c0,1.516-1.139,2.656-2.656,2.656
	h-22.648v19.229h42.764c1.393,0,2.656,1.141,2.656,2.531v14.926c0,1.52-1.139,2.66-2.656,2.66h-61.74
	c-1.518,0-2.656-1.141-2.656-2.66v-96.023c0-1.391,1.012-2.531,2.529-2.531h61.867c1.393,0,2.656,1.141,2.656,2.531v15.053
	c0,1.52-1.139,2.533-2.656,2.533H626.562z"/>
<path fill="#3B3315" d="M761.617,477.996v15.439c-0.018,1.303-1.037,2.141-2.678,2.141c-26.803,0-39.619-19.863-41.479-29.236
	c-0.234-1.18-1.213-2.164-2.418-2.164c-7.594,0-14.951,0-14.951,0V492.9c0,1.506-1.008,2.643-2.389,2.643h-16.498
	c-1.514,0-2.523-1.004-2.523-2.643v-95.607c0-1.383,1.01-2.52,2.523-2.52h40.68c20.785,0,33.885,19.275,33.885,34.512
	c0,11.717-6.678,24.566-18.137,30.865c0,0,2.457,15.742,21.545,15.742C760.691,475.914,761.633,476.799,761.617,477.996z
	 M700.221,444.152h18.516c10.834,0,15.24-7.938,15.24-14.99c0-6.801-4.533-14.359-15.24-14.359h-18.516V444.152z"/>
</svg>
